<svg width="20" height="19" viewBox="0 0 20 19" fill="none" xmlns="http://www.w3.org/2000/svg">
<path d="M19.1397 7.65639H18.3824V7.61779H9.91177V11.3825H15.2316C14.454 13.5737 12.3695 15.1472 9.91177 15.1472C6.79228 15.1472 4.26471 12.6196 4.26471 9.50014C4.26471 6.38066 6.79228 3.85308 9.91177 3.85308C11.3511 3.85308 12.6618 4.39536 13.6581 5.28323L16.3199 2.62147C14.6397 1.05529 12.3915 0.0883789 9.91177 0.0883789C4.71324 0.0883789 0.5 4.30161 0.5 9.50014C0.5 14.6987 4.71324 18.9119 9.91177 18.9119C15.1103 18.9119 19.3235 14.6987 19.3235 9.50014C19.3235 8.86963 19.2592 8.25382 19.1397 7.65639Z" fill="white"/>
<path d="M1.58456 5.11963L4.67831 7.38801C5.51471 5.31632 7.54045 3.85308 9.91177 3.85308C11.3511 3.85308 12.6618 4.39536 13.6581 5.28323L16.3199 2.62147C14.6397 1.05529 12.3915 0.0883789 9.91177 0.0883789C6.29596 0.0883789 3.16177 2.12882 1.58456 5.11963Z" fill="white"/>
<path d="M9.91176 18.9119C12.3419 18.9119 14.5515 17.9817 16.2224 16.4689L13.3088 14.0038C12.364 14.7189 11.1893 15.1472 9.91176 15.1472C7.46323 15.1472 5.38602 13.5865 4.60293 11.4082L1.53308 13.7722C3.09007 16.82 6.25367 18.9119 9.91176 18.9119Z" fill="white"/>
<path d="M19.1397 7.65628H18.3823V7.61768H9.91176V11.3824H15.2316C14.8584 12.4357 14.1801 13.3419 13.307 14.0037C13.3088 14.0037 13.3088 14.0037 13.3088 14.0037L16.2224 16.4688C16.0165 16.6544 19.3235 14.2059 19.3235 9.50003C19.3235 8.86951 19.2592 8.25371 19.1397 7.65628Z" fill="white"/>
</svg>
