<svg width="19" height="15" viewBox="0 0 19 15" fill="none" xmlns="http://www.w3.org/2000/svg">
<path fill-rule="evenodd" clip-rule="evenodd" d="M15.4659 1.67708C16.0659 1.62646 16.8457 1.29638 17.3051 1.06646C17.4538 0.986231 17.6026 0.906 17.7513 0.825769C17.4894 1.52415 17.1339 2.07069 16.5865 2.48531C16.4651 2.57738 16.3448 2.70177 16.1927 2.76046C16.972 2.761 17.6141 2.41531 18.2249 2.22738C17.9039 2.73785 17.4702 3.24669 17.007 3.61177C16.8205 3.75769 16.6335 3.90415 16.4465 4.05008C16.4569 4.86262 16.4345 5.63746 16.2802 6.32023C15.3834 10.2882 13.0077 12.9821 9.24687 14.136C7.89609 14.5501 5.71406 14.7202 4.16695 14.3422C3.39969 14.1543 2.70625 13.9427 2.05602 13.6627C1.69453 13.5076 1.35984 13.3391 1.03992 13.1468C0.934922 13.0838 0.829375 13.0208 0.724922 12.9578C1.07383 12.9681 1.4818 13.0628 1.87227 13.0009C2.225 12.9444 2.57117 12.9595 2.89656 12.8889C3.70922 12.7139 4.43 12.4818 5.05125 12.1238C5.35258 11.9504 5.80977 11.7463 6.02359 11.4959C5.62055 11.5035 5.25469 11.4108 4.955 11.3069C3.79344 10.9031 3.1175 10.1611 2.67781 9.04538C3.02945 9.08362 4.04336 9.17354 4.2807 8.977C3.83719 8.95277 3.41172 8.70023 3.10711 8.51285C2.17305 7.93723 1.4107 6.97177 1.41672 5.48615C1.53922 5.54377 1.66172 5.60085 1.78477 5.65792C2.01883 5.75538 2.25781 5.80762 2.53781 5.86415C2.65594 5.88838 2.89219 5.95677 3.02781 5.90723C2.82984 5.69992 2.53562 5.56208 2.35352 5.33969C1.75414 4.60631 1.1925 3.47715 1.54797 2.13262C1.6382 1.79177 1.78094 1.49023 1.93352 1.21238C2.02047 1.36531 2.17633 1.47085 2.27477 1.59092C2.58102 1.96462 2.95891 2.30062 3.34336 2.59731C4.65477 3.60692 5.83547 4.22669 7.73148 4.68654C8.21273 4.80285 8.76891 4.89169 9.34313 4.89277C9.1818 4.43023 9.23375 3.68123 9.36063 3.23323C9.68055 2.10677 10.3745 1.29531 11.3928 0.860231C11.6362 0.756308 11.9063 0.680385 12.1896 0.619538C12.3362 0.602308 12.4816 0.585077 12.6277 0.567846C14.0184 0.543615 14.7588 1.04277 15.4659 1.67708Z" fill="white"/>
</svg>
